<svg xmlns="http://www.w3.org/2000/svg" xmlns:xlink="http://www.w3.org/1999/xlink" width="500" zoomAndPan="magnify" viewBox="0 0 375 374.999991" height="500" preserveAspectRatio="xMidYMid meet" version="1.0"><defs><g/><clipPath id="207773e05e"><path d="M 113 92 L 262 92 L 262 240.15625 L 113 240.15625 Z M 113 92 " clip-rule="nonzero"/></clipPath><clipPath id="48c31f8d9d"><path d="M 182 92 L 262 92 L 262 240.15625 L 182 240.15625 Z M 182 92 " clip-rule="nonzero"/></clipPath><clipPath id="dd2d76555b"><path d="M 97 88.65625 L 105 88.65625 L 105 128 L 97 128 Z M 97 88.65625 " clip-rule="nonzero"/></clipPath><clipPath id="ef2661bc83"><path d="M 85.289062 88.65625 L 93 88.65625 L 93 128 L 85.289062 128 Z M 85.289062 88.65625 " clip-rule="nonzero"/></clipPath><clipPath id="31b53f83b9"><path d="M 108 88.65625 L 116 88.65625 L 116 128 L 108 128 Z M 108 88.65625 " clip-rule="nonzero"/></clipPath><clipPath id="fd466bad06"><path d="M 120 88.65625 L 128 88.65625 L 128 128 L 120 128 Z M 120 88.65625 " clip-rule="nonzero"/></clipPath><clipPath id="28c5b89b1d"><path d="M 96 123 L 117 123 L 117 240.15625 L 96 240.15625 Z M 96 123 " clip-rule="nonzero"/></clipPath><clipPath id="8a5648592a"><path d="M 258 123 L 279 123 L 279 240.15625 L 258 240.15625 Z M 258 123 " clip-rule="nonzero"/></clipPath><clipPath id="6e5b05cf8e"><path d="M 265 123 L 279 123 L 279 240.15625 L 265 240.15625 Z M 265 123 " clip-rule="nonzero"/></clipPath><clipPath id="316faac403"><path d="M 103 123 L 117 123 L 117 240.15625 L 103 240.15625 Z M 103 123 " clip-rule="nonzero"/></clipPath><clipPath id="dcc746051f"><path d="M 247 92 L 290.039062 92 L 290.039062 149 L 247 149 Z M 247 92 " clip-rule="nonzero"/></clipPath><clipPath id="11f4c0385f"><path d="M 260 92 L 290.039062 92 L 290.039062 149 L 260 149 Z M 260 92 " clip-rule="nonzero"/></clipPath><clipPath id="b83fcf2cb1"><path d="M 85.289062 120 L 128 120 L 128 149 L 85.289062 149 Z M 85.289062 120 " clip-rule="nonzero"/></clipPath><clipPath id="cb9dc5e4e9"><path d="M 159.363281 136.28125 L 215.636719 136.28125 L 215.636719 192.558594 L 159.363281 192.558594 Z M 159.363281 136.28125 " clip-rule="nonzero"/></clipPath><clipPath id="4fca26314e"><path d="M 187.5 136.28125 C 171.960938 136.28125 159.363281 148.878906 159.363281 164.421875 C 159.363281 179.960938 171.960938 192.558594 187.5 192.558594 C 203.039062 192.558594 215.636719 179.960938 215.636719 164.421875 C 215.636719 148.878906 203.039062 136.28125 187.5 136.28125 Z M 187.5 136.28125 " clip-rule="nonzero"/></clipPath><clipPath id="660d0f2e42"><path d="M 154.792969 131.472656 L 220.042969 131.472656 L 220.042969 197.472656 L 154.792969 197.472656 Z M 154.792969 131.472656 " clip-rule="nonzero"/></clipPath></defs><g clip-path="url(#207773e05e)"><path fill="#eeeeee" d="M 261.78125 166.167969 C 261.78125 167.378906 261.753906 168.589844 261.691406 169.796875 C 261.632812 171.007812 261.542969 172.214844 261.425781 173.417969 C 261.304688 174.625 261.15625 175.824219 260.980469 177.023438 C 260.800781 178.222656 260.59375 179.414062 260.359375 180.601562 C 260.121094 181.789062 259.855469 182.96875 259.5625 184.144531 C 259.265625 185.320312 258.941406 186.484375 258.589844 187.644531 C 258.238281 188.804688 257.859375 189.953125 257.449219 191.09375 C 257.039062 192.234375 256.605469 193.363281 256.140625 194.480469 C 255.675781 195.601562 255.183594 196.707031 254.664062 197.800781 C 254.148438 198.894531 253.601562 199.976562 253.03125 201.046875 C 252.457031 202.113281 251.859375 203.167969 251.238281 204.203125 C 250.613281 205.242188 249.964844 206.265625 249.289062 207.273438 C 248.617188 208.28125 247.917969 209.269531 247.195312 210.242188 C 246.472656 211.214844 245.726562 212.167969 244.957031 213.105469 C 244.1875 214.042969 243.394531 214.957031 242.582031 215.855469 C 241.765625 216.753906 240.929688 217.628906 240.074219 218.484375 C 239.214844 219.339844 238.335938 220.175781 237.4375 220.988281 C 236.539062 221.800781 235.621094 222.59375 234.683594 223.359375 C 233.746094 224.128906 232.789062 224.875 231.816406 225.59375 C 230.839844 226.316406 229.851562 227.015625 228.839844 227.6875 C 227.832031 228.359375 226.808594 229.007812 225.769531 229.628906 C 224.726562 230.25 223.671875 230.847656 222.601562 231.417969 C 221.53125 231.988281 220.449219 232.535156 219.351562 233.050781 C 218.257812 233.570312 217.148438 234.058594 216.027344 234.523438 C 214.90625 234.988281 213.773438 235.421875 212.632812 235.832031 C 211.492188 236.238281 210.339844 236.617188 209.179688 236.96875 C 208.019531 237.320312 206.847656 237.644531 205.671875 237.9375 C 204.496094 238.234375 203.3125 238.496094 202.125 238.734375 C 200.933594 238.96875 199.738281 239.175781 198.539062 239.355469 C 197.339844 239.53125 196.136719 239.679688 194.929688 239.800781 C 193.722656 239.917969 192.511719 240.007812 191.300781 240.066406 C 190.089844 240.125 188.875 240.15625 187.664062 240.15625 C 186.449219 240.15625 185.238281 240.125 184.027344 240.066406 C 182.816406 240.007812 181.605469 239.917969 180.398438 239.800781 C 179.191406 239.679688 177.988281 239.53125 176.789062 239.355469 C 175.589844 239.175781 174.394531 238.96875 173.203125 238.734375 C 172.015625 238.496094 170.832031 238.234375 169.652344 237.9375 C 168.476562 237.644531 167.308594 237.320312 166.148438 236.96875 C 164.988281 236.617188 163.835938 236.238281 162.695312 235.832031 C 161.550781 235.421875 160.421875 234.988281 159.300781 234.523438 C 158.179688 234.058594 157.070312 233.570312 155.972656 233.050781 C 154.878906 232.535156 153.792969 231.988281 152.722656 231.417969 C 151.65625 230.847656 150.597656 230.25 149.558594 229.628906 C 148.519531 229.007812 147.492188 228.359375 146.484375 227.6875 C 145.476562 227.015625 144.484375 226.316406 143.511719 225.59375 C 142.535156 224.875 141.582031 224.128906 140.644531 223.359375 C 139.707031 222.59375 138.789062 221.800781 137.886719 220.988281 C 136.988281 220.175781 136.113281 219.339844 135.253906 218.484375 C 134.394531 217.628906 133.558594 216.753906 132.746094 215.855469 C 131.929688 214.957031 131.136719 214.042969 130.367188 213.105469 C 129.597656 212.167969 128.851562 211.214844 128.128906 210.242188 C 127.410156 209.269531 126.710938 208.28125 126.035156 207.273438 C 125.363281 206.265625 124.714844 205.242188 124.089844 204.203125 C 123.464844 203.167969 122.867188 202.113281 122.296875 201.046875 C 121.726562 199.976562 121.179688 198.894531 120.660156 197.800781 C 120.140625 196.707031 119.652344 195.601562 119.1875 194.480469 C 118.722656 193.363281 118.285156 192.234375 117.878906 191.09375 C 117.46875 189.953125 117.089844 188.804688 116.738281 187.644531 C 116.382812 186.484375 116.0625 185.320312 115.765625 184.144531 C 115.472656 182.96875 115.207031 181.789062 114.96875 180.601562 C 114.730469 179.414062 114.523438 178.222656 114.347656 177.023438 C 114.167969 175.824219 114.019531 174.625 113.902344 173.417969 C 113.78125 172.214844 113.695312 171.007812 113.632812 169.796875 C 113.574219 168.589844 113.542969 167.378906 113.542969 166.167969 C 113.542969 164.957031 113.574219 163.746094 113.632812 162.535156 C 113.695312 161.328125 113.78125 160.121094 113.902344 158.914062 C 114.019531 157.710938 114.167969 156.507812 114.347656 155.3125 C 114.523438 154.113281 114.730469 152.921875 114.96875 151.734375 C 115.207031 150.546875 115.472656 149.363281 115.765625 148.191406 C 116.0625 147.015625 116.382812 145.847656 116.738281 144.691406 C 117.089844 143.53125 117.46875 142.382812 117.878906 141.242188 C 118.285156 140.101562 118.722656 138.972656 119.1875 137.851562 C 119.652344 136.734375 120.140625 135.628906 120.660156 134.535156 C 121.179688 133.4375 121.726562 132.355469 122.296875 131.289062 C 122.867188 130.222656 123.464844 129.167969 124.089844 128.128906 C 124.714844 127.089844 125.363281 126.070312 126.035156 125.0625 C 126.710938 124.054688 127.410156 123.066406 128.128906 122.09375 C 128.851562 121.121094 129.597656 120.164062 130.367188 119.230469 C 131.136719 118.292969 131.929688 117.378906 132.746094 116.480469 C 133.558594 115.582031 134.394531 114.707031 135.253906 113.851562 C 136.113281 112.992188 136.988281 112.160156 137.886719 111.34375 C 138.789062 110.53125 139.707031 109.742188 140.644531 108.972656 C 141.582031 108.207031 142.535156 107.460938 143.511719 106.738281 C 144.484375 106.019531 145.476562 105.320312 146.484375 104.648438 C 147.492188 103.976562 148.519531 103.328125 149.558594 102.707031 C 150.597656 102.082031 151.65625 101.484375 152.722656 100.914062 C 153.792969 100.34375 154.878906 99.800781 155.972656 99.28125 C 157.070312 98.765625 158.179688 98.273438 159.300781 97.8125 C 160.421875 97.347656 161.550781 96.910156 162.695312 96.503906 C 163.835938 96.097656 164.988281 95.714844 166.148438 95.363281 C 167.308594 95.011719 168.476562 94.691406 169.652344 94.394531 C 170.832031 94.101562 172.015625 93.835938 173.203125 93.601562 C 174.394531 93.363281 175.589844 93.15625 176.789062 92.980469 C 177.988281 92.800781 179.191406 92.652344 180.398438 92.535156 C 181.605469 92.417969 182.816406 92.328125 184.027344 92.269531 C 185.238281 92.207031 186.449219 92.179688 187.664062 92.179688 C 188.875 92.179688 190.089844 92.207031 191.300781 92.269531 C 192.511719 92.328125 193.722656 92.417969 194.929688 92.535156 C 196.136719 92.652344 197.339844 92.800781 198.539062 92.980469 C 199.738281 93.15625 200.933594 93.363281 202.125 93.601562 C 203.3125 93.835938 204.496094 94.101562 205.671875 94.394531 C 206.847656 94.691406 208.019531 95.011719 209.179688 95.363281 C 210.339844 95.714844 211.492188 96.097656 212.632812 96.503906 C 213.773438 96.910156 214.90625 97.347656 216.027344 97.8125 C 217.148438 98.273438 218.257812 98.765625 219.351562 99.28125 C 220.449219 99.800781 221.53125 100.34375 222.601562 100.914062 C 223.671875 101.484375 224.726562 102.082031 225.769531 102.707031 C 226.808594 103.328125 227.832031 103.976562 228.839844 104.648438 C 229.851562 105.320312 230.839844 106.019531 231.816406 106.738281 C 232.789062 107.460938 233.746094 108.207031 234.683594 108.972656 C 235.621094 109.742188 236.539062 110.53125 237.4375 111.34375 C 238.335938 112.160156 239.214844 112.992188 240.074219 113.851562 C 240.929688 114.707031 241.765625 115.582031 242.582031 116.480469 C 243.394531 117.378906 244.1875 118.292969 244.957031 119.230469 C 245.726562 120.164062 246.472656 121.121094 247.195312 122.09375 C 247.917969 123.066406 248.617188 124.054688 249.289062 125.0625 C 249.964844 126.070312 250.613281 127.089844 251.238281 128.128906 C 251.859375 129.167969 252.457031 130.222656 253.03125 131.289062 C 253.601562 132.355469 254.148438 133.4375 254.664062 134.535156 C 255.183594 135.628906 255.675781 136.734375 256.140625 137.851562 C 256.605469 138.972656 257.039062 140.101562 257.449219 141.242188 C 257.859375 142.382812 258.238281 143.53125 258.589844 144.691406 C 258.941406 145.847656 259.265625 147.015625 259.5625 148.191406 C 259.855469 149.363281 260.121094 150.546875 260.359375 151.734375 C 260.59375 152.921875 260.800781 154.113281 260.980469 155.3125 C 261.15625 156.507812 261.304688 157.710938 261.425781 158.914062 C 261.542969 160.121094 261.632812 161.328125 261.691406 162.535156 C 261.753906 163.746094 261.78125 164.957031 261.78125 166.167969 Z M 261.78125 166.167969 " fill-opacity="1" fill-rule="nonzero"/></g><g clip-path="url(#48c31f8d9d)"><path fill="#e0e0e0" d="M 187.664062 92.179688 C 185.875 92.179688 184.125 92.320312 182.371094 92.445312 C 184.679688 92.609375 186.976562 92.878906 189.261719 93.257812 C 191.546875 93.632812 193.808594 94.117188 196.046875 94.707031 C 198.285156 95.296875 200.492188 95.992188 202.667969 96.789062 C 204.839844 97.585938 206.972656 98.480469 209.0625 99.476562 C 211.152344 100.472656 213.191406 101.566406 215.179688 102.75 C 217.164062 103.9375 219.09375 105.214844 220.960938 106.585938 C 222.828125 107.953125 224.625 109.402344 226.355469 110.941406 C 228.085938 112.476562 229.742188 114.089844 231.320312 115.78125 C 232.898438 117.472656 234.394531 119.234375 235.808594 121.066406 C 237.222656 122.894531 238.546875 124.789062 239.78125 126.746094 C 241.015625 128.699219 242.15625 130.710938 243.203125 132.773438 C 244.25 134.835938 245.199219 136.941406 246.046875 139.09375 C 246.894531 141.242188 247.640625 143.429688 248.285156 145.648438 C 248.925781 147.871094 249.464844 150.117188 249.894531 152.386719 C 250.328125 154.660156 250.652344 156.945312 250.867188 159.246094 C 251.085938 161.550781 251.195312 163.855469 251.195312 166.167969 C 251.195312 168.480469 251.085938 170.785156 250.867188 173.085938 C 250.652344 175.390625 250.328125 177.675781 249.894531 179.945312 C 249.464844 182.21875 248.925781 184.464844 248.285156 186.683594 C 247.640625 188.90625 246.894531 191.09375 246.046875 193.242188 C 245.199219 195.394531 244.25 197.5 243.203125 199.5625 C 242.15625 201.625 241.015625 203.632812 239.78125 205.589844 C 238.546875 207.542969 237.222656 209.4375 235.808594 211.269531 C 234.394531 213.101562 232.898438 214.863281 231.320312 216.554688 C 229.742188 218.246094 228.085938 219.859375 226.355469 221.394531 C 224.625 222.929688 222.828125 224.382812 220.960938 225.75 C 219.09375 227.117188 217.164062 228.394531 215.179688 229.582031 C 213.191406 230.769531 211.152344 231.863281 209.0625 232.859375 C 206.972656 233.855469 204.839844 234.75 202.667969 235.546875 C 200.492188 236.34375 198.285156 237.035156 196.046875 237.625 C 193.808594 238.214844 191.546875 238.699219 189.261719 239.078125 C 186.976562 239.457031 184.679688 239.726562 182.371094 239.890625 C 184.125 240.011719 185.875 240.15625 187.664062 240.15625 C 188.875 240.15625 190.089844 240.125 191.300781 240.066406 C 192.511719 240.007812 193.722656 239.917969 194.929688 239.800781 C 196.136719 239.679688 197.339844 239.53125 198.539062 239.355469 C 199.738281 239.175781 200.933594 238.96875 202.125 238.734375 C 203.3125 238.496094 204.496094 238.234375 205.671875 237.9375 C 206.847656 237.644531 208.019531 237.320312 209.179688 236.96875 C 210.339844 236.617188 211.492188 236.238281 212.632812 235.832031 C 213.773438 235.421875 214.90625 234.988281 216.027344 234.523438 C 217.148438 234.058594 218.257812 233.570312 219.351562 233.050781 C 220.449219 232.535156 221.53125 231.988281 222.601562 231.417969 C 223.671875 230.847656 224.726562 230.25 225.769531 229.628906 C 226.808594 229.007812 227.832031 228.359375 228.839844 227.6875 C 229.851562 227.015625 230.839844 226.316406 231.816406 225.59375 C 232.789062 224.875 233.746094 224.128906 234.683594 223.359375 C 235.621094 222.59375 236.539062 221.800781 237.4375 220.988281 C 238.335938 220.175781 239.214844 219.339844 240.074219 218.484375 C 240.929688 217.628906 241.765625 216.753906 242.582031 215.855469 C 243.394531 214.957031 244.1875 214.042969 244.957031 213.105469 C 245.726562 212.167969 246.472656 211.214844 247.195312 210.242188 C 247.917969 209.269531 248.617188 208.28125 249.289062 207.273438 C 249.964844 206.265625 250.613281 205.242188 251.238281 204.203125 C 251.859375 203.167969 252.457031 202.113281 253.03125 201.046875 C 253.601562 199.976562 254.148438 198.894531 254.664062 197.800781 C 255.183594 196.707031 255.675781 195.601562 256.140625 194.480469 C 256.605469 193.363281 257.039062 192.234375 257.449219 191.09375 C 257.859375 189.953125 258.238281 188.804688 258.589844 187.644531 C 258.941406 186.484375 259.265625 185.320312 259.5625 184.144531 C 259.855469 182.96875 260.121094 181.789062 260.359375 180.601562 C 260.59375 179.414062 260.800781 178.222656 260.980469 177.023438 C 261.15625 175.824219 261.304688 174.625 261.425781 173.417969 C 261.542969 172.214844 261.632812 171.007812 261.691406 169.796875 C 261.753906 168.589844 261.78125 167.378906 261.78125 166.167969 C 261.78125 164.957031 261.753906 163.746094 261.691406 162.535156 C 261.632812 161.328125 261.542969 160.121094 261.425781 158.914062 C 261.304688 157.710938 261.15625 156.507812 260.980469 155.3125 C 260.800781 154.113281 260.59375 152.921875 260.359375 151.734375 C 260.121094 150.546875 259.855469 149.363281 259.5625 148.191406 C 259.265625 147.015625 258.941406 145.847656 258.589844 144.691406 C 258.238281 143.53125 257.859375 142.382812 257.449219 141.242188 C 257.039062 140.101562 256.605469 138.972656 256.140625 137.851562 C 255.675781 136.734375 255.183594 135.628906 254.664062 134.535156 C 254.148438 133.4375 253.601562 132.355469 253.03125 131.289062 C 252.457031 130.222656 251.859375 129.167969 251.238281 128.128906 C 250.613281 127.089844 249.964844 126.070312 249.289062 125.0625 C 248.617188 124.054688 247.917969 123.066406 247.195312 122.09375 C 246.472656 121.121094 245.726562 120.164062 244.957031 119.230469 C 244.1875 118.292969 243.394531 117.378906 242.582031 116.480469 C 241.765625 115.582031 240.929688 114.707031 240.074219 113.851562 C 239.214844 112.992188 238.335938 112.160156 237.4375 111.34375 C 236.539062 110.53125 235.621094 109.742188 234.683594 108.972656 C 233.746094 108.207031 232.789062 107.460938 231.816406 106.738281 C 230.839844 106.019531 229.851562 105.320312 228.839844 104.648438 C 227.832031 103.976562 226.808594 103.328125 225.769531 102.707031 C 224.726562 102.082031 223.671875 101.484375 222.601562 100.914062 C 221.53125 100.34375 220.449219 99.800781 219.351562 99.28125 C 218.257812 98.765625 217.148438 98.273438 216.027344 97.8125 C 214.90625 97.347656 213.773438 96.910156 212.632812 96.503906 C 211.492188 96.097656 210.339844 95.714844 209.179688 95.363281 C 208.019531 95.011719 206.847656 94.691406 205.671875 94.394531 C 204.496094 94.101562 203.3125 93.835938 202.125 93.601562 C 200.933594 93.363281 199.738281 93.15625 198.539062 92.980469 C 197.339844 92.800781 196.136719 92.652344 194.929688 92.535156 C 193.722656 92.417969 192.511719 92.328125 191.300781 92.269531 C 190.089844 92.207031 188.875 92.179688 187.664062 92.179688 Z M 187.664062 92.179688 " fill-opacity="1" fill-rule="nonzero"/></g><path fill="#81c784" d="M 240.605469 166.167969 C 240.605469 167.898438 240.519531 169.625 240.347656 171.347656 C 240.179688 173.070312 239.921875 174.777344 239.585938 176.476562 C 239.246094 178.171875 238.824219 179.851562 238.320312 181.507812 C 237.816406 183.164062 237.234375 184.789062 236.570312 186.390625 C 235.90625 187.988281 235.164062 189.550781 234.347656 191.078125 C 233.53125 192.601562 232.640625 194.085938 231.675781 195.523438 C 230.714844 196.964844 229.683594 198.351562 228.582031 199.6875 C 227.480469 201.027344 226.320312 202.308594 225.09375 203.53125 C 223.867188 204.753906 222.585938 205.917969 221.246094 207.015625 C 219.902344 208.113281 218.511719 209.140625 217.070312 210.105469 C 215.628906 211.066406 214.144531 211.953125 212.617188 212.769531 C 211.085938 213.585938 209.523438 214.324219 207.921875 214.988281 C 206.320312 215.652344 204.6875 216.234375 203.03125 216.734375 C 201.371094 217.238281 199.691406 217.660156 197.992188 217.996094 C 196.289062 218.335938 194.578125 218.589844 192.851562 218.761719 C 191.125 218.929688 189.398438 219.015625 187.664062 219.015625 L 187.664062 197.875 C 188.703125 197.875 189.742188 197.824219 190.777344 197.722656 C 191.8125 197.621094 192.839844 197.46875 193.859375 197.265625 C 194.878906 197.0625 195.886719 196.8125 196.882812 196.511719 C 197.878906 196.210938 198.859375 195.859375 199.820312 195.460938 C 200.78125 195.066406 201.71875 194.621094 202.636719 194.132812 C 203.554688 193.640625 204.445312 193.109375 205.308594 192.53125 C 206.175781 191.953125 207.011719 191.335938 207.8125 190.679688 C 208.617188 190.019531 209.386719 189.324219 210.125 188.589844 C 210.859375 187.855469 211.558594 187.085938 212.21875 186.28125 C 212.878906 185.480469 213.496094 184.648438 214.074219 183.785156 C 214.652344 182.921875 215.1875 182.03125 215.675781 181.113281 C 216.167969 180.199219 216.613281 179.261719 217.011719 178.300781 C 217.40625 177.34375 217.757812 176.367188 218.058594 175.371094 C 218.363281 174.378906 218.613281 173.371094 218.816406 172.351562 C 219.019531 171.335938 219.171875 170.308594 219.273438 169.273438 C 219.378906 168.242188 219.429688 167.207031 219.429688 166.167969 C 219.433594 163.382812 219.074219 160.644531 218.351562 157.957031 C 217.625 155.265625 216.5625 152.71875 215.15625 150.3125 L 233.511719 139.742188 C 235.84375 143.757812 237.613281 148.003906 238.816406 152.484375 C 240.019531 156.96875 240.613281 161.527344 240.605469 166.167969 Z M 240.605469 166.167969 " fill-opacity="1" fill-rule="nonzero"/><path fill="#ef5350" d="M 233.511719 139.742188 L 215.15625 150.3125 C 214.464844 149.113281 213.695312 147.964844 212.851562 146.863281 C 212.007812 145.765625 211.09375 144.726562 210.113281 143.746094 C 209.132812 142.765625 208.09375 141.855469 206.992188 141.011719 C 205.890625 140.167969 204.742188 139.398438 203.539062 138.707031 C 202.339844 138.015625 201.097656 137.402344 199.816406 136.871094 C 198.53125 136.339844 197.222656 135.898438 195.882812 135.539062 C 194.542969 135.179688 193.183594 134.910156 191.808594 134.730469 C 190.433594 134.546875 189.050781 134.457031 187.664062 134.457031 C 186.277344 134.457031 184.894531 134.546875 183.519531 134.730469 C 182.144531 134.910156 180.785156 135.179688 179.445312 135.539062 C 178.105469 135.898438 176.792969 136.339844 175.511719 136.871094 C 174.230469 137.402344 172.988281 138.015625 171.789062 138.707031 C 170.585938 139.398438 169.433594 140.167969 168.335938 141.011719 C 167.234375 141.855469 166.191406 142.765625 165.210938 143.746094 C 164.230469 144.726562 163.320312 145.765625 162.476562 146.863281 C 161.628906 147.964844 160.863281 149.113281 160.167969 150.3125 L 141.816406 139.742188 C 142.972656 137.742188 144.253906 135.828125 145.664062 133.996094 C 147.070312 132.164062 148.59375 130.429688 150.230469 128.796875 C 151.863281 127.164062 153.601562 125.644531 155.433594 124.238281 C 157.269531 122.832031 159.191406 121.554688 161.191406 120.398438 C 163.195312 119.246094 165.265625 118.226562 167.402344 117.339844 C 169.542969 116.457031 171.726562 115.71875 173.960938 115.121094 C 176.195312 114.523438 178.460938 114.070312 180.753906 113.769531 C 183.046875 113.46875 185.351562 113.320312 187.664062 113.320312 C 189.976562 113.320312 192.28125 113.46875 194.574219 113.769531 C 196.867188 114.070312 199.132812 114.523438 201.367188 115.121094 C 203.601562 115.71875 205.785156 116.457031 207.921875 117.339844 C 210.058594 118.226562 212.128906 119.246094 214.132812 120.398438 C 216.136719 121.554688 218.054688 122.832031 219.890625 124.238281 C 221.726562 125.644531 223.460938 127.164062 225.097656 128.796875 C 226.734375 130.429688 228.253906 132.164062 229.664062 133.996094 C 231.070312 135.828125 232.355469 137.742188 233.511719 139.742188 Z M 233.511719 139.742188 " fill-opacity="1" fill-rule="nonzero"/><path fill="#ffb74d" d="M 187.664062 197.875 L 187.664062 219.015625 C 185.351562 219.015625 183.046875 218.867188 180.753906 218.5625 C 178.460938 218.261719 176.195312 217.8125 173.960938 217.214844 C 171.726562 216.617188 169.539062 215.878906 167.402344 214.992188 C 165.265625 214.109375 163.195312 213.089844 161.191406 211.9375 C 159.1875 210.78125 157.269531 209.5 155.433594 208.097656 C 153.597656 206.691406 151.863281 205.171875 150.226562 203.539062 C 148.589844 201.90625 147.070312 200.171875 145.660156 198.339844 C 144.253906 196.507812 142.96875 194.59375 141.8125 192.59375 C 140.65625 190.59375 139.636719 188.527344 138.75 186.390625 C 137.867188 184.257812 137.125 182.078125 136.523438 179.847656 C 135.925781 177.613281 135.476562 175.355469 135.175781 173.066406 C 134.871094 170.777344 134.722656 168.476562 134.722656 166.167969 C 134.722656 163.859375 134.871094 161.558594 135.175781 159.269531 C 135.476562 156.980469 135.925781 154.71875 136.527344 152.488281 C 137.125 150.257812 137.867188 148.078125 138.753906 145.941406 C 139.636719 143.808594 140.660156 141.742188 141.816406 139.742188 L 160.167969 150.3125 C 158.765625 152.71875 157.699219 155.265625 156.976562 157.957031 C 156.253906 160.644531 155.894531 163.382812 155.898438 166.167969 C 155.898438 167.207031 155.949219 168.242188 156.050781 169.273438 C 156.152344 170.308594 156.304688 171.335938 156.507812 172.351562 C 156.710938 173.371094 156.964844 174.378906 157.265625 175.371094 C 157.570312 176.367188 157.917969 177.34375 158.316406 178.300781 C 158.714844 179.261719 159.160156 180.199219 159.648438 181.113281 C 160.140625 182.03125 160.675781 182.921875 161.253906 183.785156 C 161.832031 184.648438 162.449219 185.480469 163.109375 186.28125 C 163.769531 187.085938 164.46875 187.855469 165.203125 188.589844 C 165.9375 189.324219 166.707031 190.019531 167.511719 190.679688 C 168.316406 191.335938 169.152344 191.953125 170.015625 192.53125 C 170.882812 193.109375 171.773438 193.640625 172.691406 194.132812 C 173.609375 194.621094 174.546875 195.066406 175.507812 195.460938 C 176.46875 195.859375 177.449219 196.210938 178.441406 196.511719 C 179.4375 196.8125 180.445312 197.0625 181.464844 197.265625 C 182.488281 197.46875 183.515625 197.621094 184.550781 197.722656 C 185.585938 197.824219 186.625 197.875 187.664062 197.875 Z M 187.664062 197.875 " fill-opacity="1" fill-rule="nonzero"/><path fill="#757575" d="M 177.074219 180.261719 C 176.726562 180.261719 176.382812 180.210938 176.050781 180.109375 C 175.714844 180.007812 175.40625 179.859375 175.113281 179.667969 C 174.824219 179.472656 174.570312 179.242188 174.347656 178.972656 C 174.125 178.703125 173.949219 178.40625 173.816406 178.085938 C 173.679688 177.761719 173.597656 177.429688 173.5625 177.082031 C 173.527344 176.734375 173.546875 176.390625 173.613281 176.050781 C 173.683594 175.707031 173.796875 175.382812 173.964844 175.078125 C 174.128906 174.769531 174.332031 174.492188 174.578125 174.246094 L 195.757812 153.105469 C 196.085938 152.773438 196.46875 152.511719 196.902344 152.328125 C 197.335938 152.148438 197.789062 152.054688 198.257812 152.050781 C 198.730469 152.050781 199.183594 152.140625 199.617188 152.316406 C 200.050781 152.496094 200.4375 152.753906 200.769531 153.085938 C 201.101562 153.417969 201.359375 153.800781 201.539062 154.234375 C 201.714844 154.667969 201.804688 155.121094 201.804688 155.589844 C 201.800781 156.0625 201.707031 156.511719 201.523438 156.945312 C 201.34375 157.378906 201.082031 157.757812 200.746094 158.089844 L 179.570312 179.226562 C 178.882812 179.917969 178.050781 180.261719 177.074219 180.261719 Z M 177.074219 180.261719 " fill-opacity="1" fill-rule="nonzero"/><path fill="#757575" d="M 180.605469 155.597656 C 180.605469 156.066406 180.515625 156.515625 180.335938 156.945312 C 180.15625 157.378906 179.902344 157.757812 179.570312 158.089844 C 179.238281 158.417969 178.859375 158.675781 178.425781 158.851562 C 177.992188 159.03125 177.542969 159.121094 177.074219 159.121094 C 176.605469 159.121094 176.15625 159.03125 175.722656 158.851562 C 175.292969 158.675781 174.910156 158.417969 174.578125 158.089844 C 174.25 157.757812 173.992188 157.378906 173.8125 156.945312 C 173.636719 156.515625 173.546875 156.066406 173.546875 155.597656 C 173.546875 155.128906 173.636719 154.679688 173.8125 154.25 C 173.992188 153.816406 174.25 153.4375 174.578125 153.105469 C 174.910156 152.777344 175.292969 152.519531 175.722656 152.34375 C 176.15625 152.164062 176.605469 152.074219 177.074219 152.074219 C 177.542969 152.074219 177.992188 152.164062 178.425781 152.34375 C 178.859375 152.519531 179.238281 152.777344 179.570312 153.105469 C 179.902344 153.4375 180.15625 153.816406 180.335938 154.25 C 180.515625 154.679688 180.605469 155.128906 180.605469 155.597656 Z M 180.605469 155.597656 " fill-opacity="1" fill-rule="nonzero"/><path fill="#757575" d="M 201.78125 176.738281 C 201.78125 177.203125 201.691406 177.652344 201.511719 178.085938 C 201.332031 178.515625 201.078125 178.898438 200.746094 179.226562 C 200.417969 179.558594 200.035156 179.8125 199.601562 179.992188 C 199.171875 180.171875 198.71875 180.261719 198.25 180.261719 C 197.785156 180.261719 197.332031 180.171875 196.902344 179.992188 C 196.46875 179.8125 196.085938 179.558594 195.757812 179.226562 C 195.425781 178.898438 195.171875 178.515625 194.992188 178.085938 C 194.8125 177.652344 194.722656 177.203125 194.722656 176.738281 C 194.722656 176.269531 194.8125 175.820312 194.992188 175.390625 C 195.171875 174.957031 195.425781 174.578125 195.757812 174.246094 C 196.085938 173.914062 196.46875 173.660156 196.902344 173.480469 C 197.332031 173.304688 197.785156 173.214844 198.25 173.214844 C 198.71875 173.214844 199.171875 173.304688 199.601562 173.480469 C 200.035156 173.660156 200.417969 173.914062 200.746094 174.246094 C 201.078125 174.578125 201.332031 174.957031 201.511719 175.390625 C 201.691406 175.820312 201.78125 176.269531 201.78125 176.738281 Z M 201.78125 176.738281 " fill-opacity="1" fill-rule="nonzero"/><g clip-path="url(#dd2d76555b)"><path fill="#ffb74d" d="M 100.601562 127.410156 C 100.132812 127.410156 99.683594 127.324219 99.25 127.144531 C 98.820312 126.964844 98.4375 126.710938 98.105469 126.378906 C 97.773438 126.050781 97.519531 125.667969 97.339844 125.238281 C 97.164062 124.804688 97.074219 124.355469 97.074219 123.886719 L 97.074219 92.179688 C 97.074219 91.710938 97.164062 91.261719 97.339844 90.832031 C 97.519531 90.398438 97.777344 90.019531 98.105469 89.6875 C 98.4375 89.355469 98.820312 89.101562 99.25 88.925781 C 99.683594 88.746094 100.132812 88.65625 100.601562 88.65625 C 101.070312 88.65625 101.519531 88.746094 101.953125 88.925781 C 102.386719 89.101562 102.765625 89.355469 103.097656 89.6875 C 103.429688 90.019531 103.683594 90.398438 103.863281 90.832031 C 104.042969 91.261719 104.132812 91.710938 104.132812 92.179688 L 104.132812 123.886719 C 104.132812 124.355469 104.042969 124.804688 103.863281 125.238281 C 103.683594 125.667969 103.429688 126.050781 103.097656 126.378906 C 102.765625 126.710938 102.386719 126.964844 101.953125 127.144531 C 101.519531 127.324219 101.070312 127.410156 100.601562 127.410156 Z M 100.601562 127.410156 " fill-opacity="1" fill-rule="nonzero"/></g><g clip-path="url(#ef2661bc83)"><path fill="#ffb74d" d="M 88.839844 127.410156 C 88.371094 127.410156 87.921875 127.324219 87.488281 127.144531 C 87.054688 126.964844 86.671875 126.710938 86.34375 126.378906 C 86.011719 126.050781 85.757812 125.667969 85.578125 125.238281 C 85.398438 124.804688 85.308594 124.355469 85.308594 123.886719 L 85.308594 92.179688 C 85.308594 91.710938 85.398438 91.261719 85.578125 90.832031 C 85.757812 90.398438 86.011719 90.019531 86.34375 89.6875 C 86.675781 89.355469 87.054688 89.101562 87.488281 88.925781 C 87.921875 88.746094 88.371094 88.65625 88.839844 88.65625 C 89.308594 88.65625 89.757812 88.746094 90.1875 88.925781 C 90.621094 89.101562 91.003906 89.355469 91.335938 89.6875 C 91.664062 90.019531 91.921875 90.398438 92.097656 90.832031 C 92.277344 91.261719 92.367188 91.710938 92.367188 92.179688 L 92.367188 123.886719 C 92.367188 124.355469 92.277344 124.804688 92.101562 125.238281 C 91.921875 125.667969 91.664062 126.050781 91.335938 126.378906 C 91.003906 126.710938 90.621094 126.964844 90.1875 127.144531 C 89.757812 127.324219 89.308594 127.410156 88.839844 127.410156 Z M 88.839844 127.410156 " fill-opacity="1" fill-rule="nonzero"/></g><g clip-path="url(#31b53f83b9)"><path fill="#ffa726" d="M 112.371094 127.410156 C 111.902344 127.410156 111.453125 127.324219 111.019531 127.144531 C 110.585938 126.964844 110.203125 126.710938 109.875 126.378906 C 109.542969 126.050781 109.289062 125.667969 109.109375 125.238281 C 108.929688 124.804688 108.839844 124.355469 108.839844 123.886719 L 108.839844 92.179688 C 108.839844 91.710938 108.929688 91.261719 109.109375 90.832031 C 109.289062 90.398438 109.542969 90.019531 109.875 89.6875 C 110.203125 89.355469 110.585938 89.101562 111.019531 88.925781 C 111.453125 88.746094 111.902344 88.65625 112.371094 88.65625 C 112.835938 88.65625 113.289062 88.746094 113.71875 88.925781 C 114.152344 89.101562 114.535156 89.355469 114.863281 89.6875 C 115.195312 90.019531 115.453125 90.398438 115.628906 90.832031 C 115.808594 91.261719 115.898438 91.710938 115.898438 92.179688 L 115.898438 123.886719 C 115.898438 124.355469 115.808594 124.804688 115.628906 125.238281 C 115.453125 125.667969 115.195312 126.050781 114.867188 126.378906 C 114.535156 126.710938 114.152344 126.964844 113.71875 127.144531 C 113.289062 127.324219 112.835938 127.410156 112.371094 127.410156 Z M 112.371094 127.410156 " fill-opacity="1" fill-rule="nonzero"/></g><g clip-path="url(#fd466bad06)"><path fill="#ffa726" d="M 124.132812 127.410156 C 123.664062 127.410156 123.214844 127.324219 122.78125 127.144531 C 122.351562 126.964844 121.96875 126.710938 121.636719 126.378906 C 121.304688 126.050781 121.050781 125.667969 120.871094 125.238281 C 120.691406 124.804688 120.605469 124.355469 120.605469 123.886719 L 120.605469 92.179688 C 120.605469 91.710938 120.691406 91.261719 120.871094 90.832031 C 121.050781 90.398438 121.304688 90.019531 121.636719 89.6875 C 121.96875 89.355469 122.351562 89.101562 122.78125 88.925781 C 123.214844 88.746094 123.664062 88.65625 124.132812 88.65625 C 124.601562 88.65625 125.050781 88.746094 125.484375 88.925781 C 125.917969 89.101562 126.296875 89.355469 126.628906 89.6875 C 126.960938 90.019531 127.214844 90.398438 127.394531 90.832031 C 127.574219 91.261719 127.664062 91.710938 127.664062 92.179688 L 127.664062 123.886719 C 127.664062 124.355469 127.574219 124.804688 127.394531 125.238281 C 127.214844 125.667969 126.960938 126.050781 126.628906 126.378906 C 126.296875 126.710938 125.917969 126.964844 125.484375 127.144531 C 125.050781 127.324219 124.601562 127.410156 124.132812 127.410156 Z M 124.132812 127.410156 " fill-opacity="1" fill-rule="nonzero"/></g><g clip-path="url(#28c5b89b1d)"><path fill="#ffb74d" d="M 106.484375 240.15625 C 105.804688 240.15625 105.132812 240.085938 104.46875 239.949219 C 103.800781 239.8125 103.15625 239.609375 102.53125 239.339844 C 101.910156 239.070312 101.320312 238.742188 100.761719 238.351562 C 100.207031 237.960938 99.695312 237.519531 99.230469 237.027344 C 98.761719 236.53125 98.351562 235.996094 97.996094 235.417969 C 97.640625 234.839844 97.347656 234.230469 97.113281 233.59375 C 96.882812 232.957031 96.71875 232.300781 96.621094 231.628906 C 96.523438 230.957031 96.496094 230.28125 96.539062 229.605469 L 102.957031 123.886719 L 110.015625 123.886719 L 116.433594 229.605469 C 116.476562 230.28125 116.445312 230.957031 116.351562 231.628906 C 116.253906 232.300781 116.089844 232.957031 115.855469 233.59375 C 115.625 234.230469 115.332031 234.839844 114.976562 235.417969 C 114.621094 235.996094 114.207031 236.53125 113.742188 237.027344 C 113.277344 237.519531 112.765625 237.960938 112.210938 238.351562 C 111.652344 238.742188 111.0625 239.070312 110.4375 239.339844 C 109.816406 239.609375 109.167969 239.8125 108.503906 239.949219 C 107.839844 240.085938 107.164062 240.15625 106.484375 240.15625 Z M 106.484375 240.15625 " fill-opacity="1" fill-rule="nonzero"/></g><g clip-path="url(#8a5648592a)"><path fill="#ffb74d" d="M 268.839844 240.15625 C 268.160156 240.15625 267.488281 240.085938 266.824219 239.949219 C 266.15625 239.8125 265.511719 239.609375 264.886719 239.339844 C 264.265625 239.070312 263.675781 238.742188 263.117188 238.351562 C 262.5625 237.960938 262.050781 237.519531 261.582031 237.027344 C 261.117188 236.53125 260.707031 235.996094 260.351562 235.417969 C 259.996094 234.839844 259.703125 234.230469 259.46875 233.59375 C 259.238281 232.957031 259.074219 232.300781 258.976562 231.628906 C 258.878906 230.957031 258.851562 230.28125 258.894531 229.605469 L 265.3125 123.886719 L 272.371094 123.886719 L 278.789062 229.605469 C 278.828125 230.28125 278.800781 230.957031 278.703125 231.628906 C 278.609375 232.300781 278.441406 232.957031 278.210938 233.59375 C 277.980469 234.230469 277.6875 234.839844 277.332031 235.417969 C 276.976562 235.996094 276.5625 236.53125 276.097656 237.027344 C 275.632812 237.519531 275.121094 237.960938 274.5625 238.351562 C 274.007812 238.742188 273.417969 239.070312 272.792969 239.339844 C 272.167969 239.609375 271.523438 239.8125 270.859375 239.949219 C 270.195312 240.085938 269.519531 240.15625 268.839844 240.15625 Z M 268.839844 240.15625 " fill-opacity="1" fill-rule="nonzero"/></g><g clip-path="url(#6e5b05cf8e)"><path fill="#ffa726" d="M 272.371094 123.886719 L 265.933594 123.886719 L 272.351562 229.605469 C 272.382812 230.144531 272.371094 230.679688 272.3125 231.21875 C 272.257812 231.753906 272.160156 232.28125 272.015625 232.800781 C 271.871094 233.320312 271.6875 233.828125 271.464844 234.316406 C 271.238281 234.808594 270.976562 235.277344 270.671875 235.722656 C 270.371094 236.171875 270.035156 236.589844 269.664062 236.980469 C 269.292969 237.375 268.894531 237.734375 268.464844 238.0625 C 268.035156 238.390625 267.582031 238.679688 267.105469 238.933594 C 266.628906 239.1875 266.132812 239.398438 265.621094 239.574219 C 266.664062 239.945312 267.734375 240.140625 268.839844 240.15625 C 269.519531 240.15625 270.195312 240.085938 270.859375 239.949219 C 271.523438 239.8125 272.167969 239.609375 272.792969 239.339844 C 273.417969 239.070312 274.007812 238.742188 274.5625 238.351562 C 275.121094 237.960938 275.632812 237.519531 276.097656 237.027344 C 276.5625 236.53125 276.976562 235.996094 277.332031 235.417969 C 277.6875 234.839844 277.980469 234.230469 278.210938 233.59375 C 278.445312 232.957031 278.609375 232.300781 278.703125 231.628906 C 278.800781 230.957031 278.828125 230.28125 278.789062 229.605469 Z M 272.371094 123.886719 " fill-opacity="1" fill-rule="nonzero"/></g><g clip-path="url(#316faac403)"><path fill="#ffa726" d="M 110.015625 123.886719 L 103.578125 123.886719 L 109.996094 229.605469 C 110.027344 230.144531 110.015625 230.679688 109.960938 231.21875 C 109.902344 231.753906 109.804688 232.28125 109.660156 232.800781 C 109.519531 233.320312 109.332031 233.828125 109.109375 234.316406 C 108.882812 234.808594 108.621094 235.277344 108.316406 235.722656 C 108.015625 236.171875 107.679688 236.589844 107.308594 236.980469 C 106.9375 237.375 106.539062 237.734375 106.109375 238.0625 C 105.679688 238.390625 105.226562 238.679688 104.75 238.933594 C 104.273438 239.1875 103.777344 239.398438 103.265625 239.574219 C 104.308594 239.945312 105.378906 240.140625 106.484375 240.15625 C 107.164062 240.15625 107.839844 240.085938 108.503906 239.949219 C 109.167969 239.8125 109.816406 239.609375 110.4375 239.339844 C 111.0625 239.070312 111.652344 238.742188 112.210938 238.351562 C 112.765625 237.960938 113.277344 237.519531 113.742188 237.027344 C 114.207031 236.53125 114.621094 235.996094 114.976562 235.417969 C 115.332031 234.839844 115.625 234.230469 115.855469 233.59375 C 116.089844 232.957031 116.253906 232.300781 116.351562 231.628906 C 116.445312 230.957031 116.476562 230.28125 116.433594 229.605469 Z M 110.015625 123.886719 " fill-opacity="1" fill-rule="nonzero"/></g><g clip-path="url(#dcc746051f)"><path fill="#ffb74d" d="M 290.019531 120.363281 C 290.019531 121.289062 289.984375 122.210938 289.914062 123.128906 C 289.847656 124.046875 289.746094 124.957031 289.609375 125.863281 C 289.476562 126.769531 289.308594 127.664062 289.105469 128.546875 C 288.90625 129.429688 288.671875 130.296875 288.40625 131.152344 C 288.140625 132.003906 287.84375 132.835938 287.515625 133.652344 C 287.191406 134.464844 286.835938 135.257812 286.449219 136.023438 C 286.0625 136.792969 285.652344 137.53125 285.210938 138.246094 C 284.769531 138.960938 284.304688 139.644531 283.816406 140.296875 C 283.324219 140.949219 282.8125 141.566406 282.273438 142.152344 C 281.738281 142.738281 281.183594 143.289062 280.605469 143.800781 C 280.03125 144.3125 279.433594 144.789062 278.824219 145.222656 C 278.210938 145.65625 277.585938 146.050781 276.945312 146.40625 C 276.304688 146.757812 275.652344 147.070312 274.988281 147.335938 C 274.324219 147.605469 273.652344 147.828125 272.972656 148.007812 C 272.292969 148.191406 271.605469 148.324219 270.917969 148.414062 C 270.226562 148.507812 269.535156 148.550781 268.839844 148.550781 C 268.148438 148.550781 267.457031 148.507812 266.765625 148.414062 C 266.074219 148.324219 265.390625 148.191406 264.710938 148.007812 C 264.027344 147.828125 263.355469 147.605469 262.695312 147.335938 C 262.03125 147.070312 261.378906 146.757812 260.738281 146.40625 C 260.097656 146.050781 259.46875 145.65625 258.859375 145.222656 C 258.246094 144.789062 257.652344 144.3125 257.074219 143.800781 C 256.5 143.289062 255.941406 142.738281 255.40625 142.152344 C 254.871094 141.566406 254.355469 140.949219 253.867188 140.296875 C 253.375 139.644531 252.910156 138.960938 252.472656 138.246094 C 252.03125 137.53125 251.617188 136.792969 251.234375 136.023438 C 250.847656 135.257812 250.492188 134.464844 250.164062 133.652344 C 249.835938 132.835938 249.542969 132.003906 249.277344 131.152344 C 249.011719 130.296875 248.777344 129.429688 248.574219 128.546875 C 248.375 127.664062 248.207031 126.769531 248.070312 125.863281 C 247.9375 124.957031 247.835938 124.046875 247.765625 123.128906 C 247.699219 122.210938 247.664062 121.289062 247.664062 120.363281 C 247.664062 119.441406 247.699219 118.519531 247.765625 117.601562 C 247.835938 116.683594 247.9375 115.773438 248.070312 114.867188 C 248.207031 113.960938 248.375 113.066406 248.574219 112.183594 C 248.777344 111.300781 249.011719 110.429688 249.277344 109.578125 C 249.542969 108.726562 249.835938 107.890625 250.164062 107.078125 C 250.492188 106.265625 250.847656 105.472656 251.234375 104.707031 C 251.617188 103.9375 252.03125 103.199219 252.472656 102.484375 C 252.910156 101.769531 253.375 101.085938 253.867188 100.433594 C 254.355469 99.78125 254.871094 99.164062 255.40625 98.578125 C 255.941406 97.992188 256.5 97.441406 257.074219 96.929688 C 257.652344 96.417969 258.246094 95.941406 258.859375 95.507812 C 259.46875 95.070312 260.097656 94.679688 260.738281 94.324219 C 261.378906 93.972656 262.03125 93.660156 262.695312 93.394531 C 263.355469 93.125 264.03125 92.902344 264.710938 92.71875 C 265.390625 92.539062 266.074219 92.40625 266.765625 92.316406 C 267.457031 92.222656 268.148438 92.179688 268.839844 92.179688 C 269.535156 92.179688 270.226562 92.222656 270.917969 92.316406 C 271.605469 92.40625 272.292969 92.539062 272.972656 92.71875 C 273.652344 92.902344 274.324219 93.125 274.988281 93.394531 C 275.652344 93.660156 276.304688 93.972656 276.945312 94.324219 C 277.585938 94.679688 278.210938 95.070312 278.824219 95.507812 C 279.433594 95.941406 280.03125 96.417969 280.605469 96.929688 C 281.183594 97.441406 281.738281 97.992188 282.273438 98.578125 C 282.8125 99.164062 283.324219 99.78125 283.816406 100.433594 C 284.304688 101.085938 284.769531 101.769531 285.210938 102.484375 C 285.652344 103.199219 286.0625 103.9375 286.449219 104.707031 C 286.835938 105.472656 287.191406 106.265625 287.515625 107.078125 C 287.84375 107.890625 288.140625 108.726562 288.40625 109.578125 C 288.671875 110.429688 288.90625 111.300781 289.105469 112.183594 C 289.308594 113.066406 289.476562 113.960938 289.609375 114.867188 C 289.746094 115.773438 289.847656 116.683594 289.914062 117.601562 C 289.984375 118.519531 290.019531 119.441406 290.019531 120.363281 Z M 290.019531 120.363281 " fill-opacity="1" fill-rule="nonzero"/></g><g clip-path="url(#11f4c0385f)"><path fill="#ffa726" d="M 268.839844 92.179688 C 265.652344 92.207031 262.710938 93.066406 260.015625 94.765625 C 267.300781 99.222656 272.371094 108.996094 272.371094 120.363281 C 272.371094 131.734375 267.300781 141.507812 260.015625 145.964844 C 262.710938 147.664062 265.652344 148.523438 268.839844 148.550781 C 280.535156 148.550781 290.019531 135.933594 290.019531 120.363281 C 290.019531 104.796875 280.535156 92.179688 268.839844 92.179688 Z M 268.839844 92.179688 " fill-opacity="1" fill-rule="nonzero"/></g><g clip-path="url(#b83fcf2cb1)"><path fill="#ffb74d" d="M 85.308594 120.363281 L 85.308594 127.410156 C 85.308594 128.105469 85.34375 128.792969 85.410156 129.484375 C 85.480469 130.171875 85.582031 130.855469 85.714844 131.535156 C 85.851562 132.214844 86.019531 132.886719 86.222656 133.546875 C 86.421875 134.210938 86.65625 134.863281 86.921875 135.5 C 87.1875 136.140625 87.484375 136.765625 87.808594 137.375 C 88.136719 137.988281 88.492188 138.582031 88.878906 139.15625 C 89.261719 139.730469 89.675781 140.289062 90.117188 140.824219 C 90.554688 141.359375 91.019531 141.871094 91.511719 142.359375 C 92.003906 142.847656 92.515625 143.3125 93.050781 143.753906 C 93.585938 144.191406 94.144531 144.605469 94.722656 144.988281 C 95.296875 145.375 95.890625 145.730469 96.503906 146.054688 C 97.113281 146.382812 97.742188 146.675781 98.382812 146.941406 C 99.023438 147.207031 99.675781 147.441406 100.339844 147.640625 C 101.003906 147.84375 101.675781 148.011719 102.355469 148.144531 C 103.035156 148.28125 103.71875 148.382812 104.410156 148.449219 C 105.101562 148.515625 105.792969 148.550781 106.484375 148.550781 C 107.179688 148.550781 107.871094 148.515625 108.5625 148.449219 C 109.25 148.382812 109.9375 148.28125 110.617188 148.144531 C 111.296875 148.011719 111.96875 147.84375 112.632812 147.640625 C 113.296875 147.441406 113.949219 147.207031 114.589844 146.941406 C 115.230469 146.675781 115.855469 146.382812 116.46875 146.054688 C 117.082031 145.730469 117.675781 145.375 118.25 144.988281 C 118.828125 144.605469 119.382812 144.191406 119.921875 143.753906 C 120.457031 143.3125 120.96875 142.847656 121.460938 142.359375 C 121.949219 141.871094 122.414062 141.359375 122.855469 140.824219 C 123.296875 140.289062 123.707031 139.730469 124.09375 139.15625 C 124.480469 138.582031 124.835938 137.988281 125.164062 137.375 C 125.488281 136.765625 125.785156 136.140625 126.050781 135.5 C 126.316406 134.863281 126.550781 134.210938 126.75 133.546875 C 126.953125 132.886719 127.121094 132.214844 127.253906 131.535156 C 127.390625 130.855469 127.492188 130.171875 127.5625 129.484375 C 127.628906 128.792969 127.664062 128.105469 127.664062 127.410156 L 127.664062 120.363281 Z M 85.308594 120.363281 " fill-opacity="1" fill-rule="nonzero"/></g><path fill="#ffa726" d="M 127.664062 120.363281 L 127.664062 127.410156 C 127.660156 128.105469 127.628906 128.792969 127.558594 129.484375 C 127.492188 130.171875 127.386719 130.855469 127.253906 131.535156 C 127.117188 132.214844 126.949219 132.882812 126.746094 133.546875 C 126.546875 134.207031 126.3125 134.859375 126.046875 135.5 C 125.78125 136.136719 125.484375 136.761719 125.15625 137.375 C 124.832031 137.984375 124.472656 138.578125 124.089844 139.152344 C 123.703125 139.726562 123.289062 140.28125 122.851562 140.816406 C 122.410156 141.351562 121.945312 141.863281 121.457031 142.355469 C 120.964844 142.84375 120.453125 143.308594 119.914062 143.746094 C 119.378906 144.1875 118.824219 144.597656 118.246094 144.984375 C 117.671875 145.367188 117.078125 145.722656 116.464844 146.050781 C 115.855469 146.375 115.226562 146.671875 114.585938 146.9375 C 113.945312 147.203125 113.292969 147.4375 112.632812 147.636719 C 111.96875 147.839844 111.296875 148.007812 110.617188 148.140625 C 109.9375 148.277344 109.25 148.378906 108.5625 148.449219 C 107.871094 148.515625 107.179688 148.550781 106.484375 148.550781 C 103.398438 148.566406 100.457031 147.921875 97.664062 146.613281 C 98.578125 146.195312 99.460938 145.714844 100.308594 145.167969 C 101.15625 144.625 101.960938 144.023438 102.722656 143.363281 C 103.484375 142.703125 104.195312 141.992188 104.855469 141.230469 C 105.511719 140.472656 106.117188 139.667969 106.660156 138.820312 C 107.207031 137.976562 107.6875 137.09375 108.105469 136.179688 C 108.523438 135.261719 108.875 134.324219 109.160156 133.355469 C 109.441406 132.390625 109.65625 131.410156 109.800781 130.414062 C 109.945312 129.417969 110.015625 128.417969 110.015625 127.410156 L 110.015625 120.363281 Z M 127.664062 120.363281 " fill-opacity="1" fill-rule="nonzero"/><path fill="#ffa726" d="M 182.371094 218.75 C 184.113281 218.921875 185.878906 219.015625 187.664062 219.015625 L 187.664062 217.953125 C 185.914062 218.308594 184.148438 218.574219 182.371094 218.75 Z M 182.371094 218.75 " fill-opacity="1" fill-rule="nonzero"/><path fill="#66bb6a" d="M 233.511719 139.742188 L 225.3125 144.464844 C 225.71875 145.363281 226.101562 146.273438 226.457031 147.195312 C 226.816406 148.117188 227.144531 149.046875 227.449219 149.988281 C 227.753906 150.925781 228.03125 151.875 228.285156 152.828125 C 228.535156 153.785156 228.757812 154.746094 228.957031 155.714844 C 229.152344 156.679688 229.324219 157.652344 229.464844 158.628906 C 229.609375 159.605469 229.722656 160.585938 229.808594 161.570312 C 229.898438 162.554688 229.957031 163.539062 229.988281 164.527344 C 230.019531 165.515625 230.027344 166.5 230.003906 167.488281 C 229.976562 168.476562 229.925781 169.460938 229.847656 170.445312 C 229.769531 171.429688 229.664062 172.410156 229.527344 173.390625 C 229.394531 174.367188 229.234375 175.339844 229.042969 176.3125 C 228.855469 177.28125 228.640625 178.242188 228.394531 179.199219 C 228.152344 180.15625 227.882812 181.105469 227.585938 182.050781 C 227.289062 182.992188 226.96875 183.925781 226.617188 184.847656 C 226.269531 185.773438 225.894531 186.6875 225.496094 187.589844 C 225.09375 188.492188 224.667969 189.382812 224.21875 190.261719 C 223.769531 191.140625 223.292969 192.007812 222.792969 192.859375 C 222.296875 193.710938 221.773438 194.550781 221.226562 195.375 C 220.679688 196.195312 220.113281 197.003906 219.519531 197.796875 C 218.929688 198.585938 218.316406 199.359375 217.679688 200.117188 C 217.046875 200.875 216.390625 201.613281 215.710938 202.335938 C 215.035156 203.054688 214.339844 203.753906 213.625 204.4375 C 212.90625 205.117188 212.171875 205.777344 211.417969 206.417969 C 210.667969 207.058594 209.894531 207.675781 209.109375 208.273438 C 208.320312 208.871094 207.515625 209.445312 206.695312 209.996094 C 205.875 210.550781 205.039062 211.078125 204.191406 211.582031 C 203.339844 212.089844 202.476562 212.570312 201.601562 213.027344 C 200.722656 213.480469 199.832031 213.914062 198.933594 214.320312 C 198.03125 214.726562 197.117188 215.109375 196.195312 215.464844 C 195.273438 215.820312 194.339844 216.148438 193.398438 216.453125 C 192.457031 216.757812 191.507812 217.035156 190.554688 217.285156 C 189.597656 217.535156 188.632812 217.757812 187.664062 217.953125 L 187.664062 219.015625 C 189.976562 219.015625 192.28125 218.867188 194.574219 218.5625 C 196.867188 218.261719 199.132812 217.8125 201.367188 217.214844 C 203.601562 216.617188 205.785156 215.878906 207.921875 214.992188 C 210.0625 214.109375 212.132812 213.089844 214.136719 211.9375 C 216.136719 210.78125 218.058594 209.5 219.894531 208.097656 C 221.726562 206.691406 223.464844 205.171875 225.097656 203.539062 C 226.734375 201.90625 228.257812 200.171875 229.664062 198.339844 C 231.074219 196.507812 232.355469 194.59375 233.511719 192.59375 C 234.667969 190.59375 235.691406 188.527344 236.574219 186.390625 C 237.460938 184.257812 238.203125 182.078125 238.800781 179.847656 C 239.402344 177.613281 239.851562 175.355469 240.152344 173.066406 C 240.453125 170.777344 240.605469 168.476562 240.605469 166.167969 C 240.605469 163.859375 240.453125 161.558594 240.152344 159.269531 C 239.851562 156.980469 239.398438 154.71875 238.800781 152.488281 C 238.203125 150.257812 237.460938 148.078125 236.574219 145.941406 C 235.6875 143.808594 234.667969 141.742188 233.511719 139.742188 Z M 233.511719 139.742188 " fill-opacity="1" fill-rule="nonzero"/><path fill="#e53935" d="M 225.3125 144.464844 L 233.511719 139.742188 C 232.355469 137.742188 231.070312 135.828125 229.664062 133.996094 C 228.253906 132.164062 226.730469 130.433594 225.097656 128.800781 C 223.460938 127.167969 221.726562 125.648438 219.890625 124.242188 C 218.054688 122.835938 216.136719 121.558594 214.132812 120.402344 C 212.128906 119.246094 210.058594 118.230469 207.921875 117.34375 C 205.785156 116.460938 203.597656 115.71875 201.363281 115.121094 C 199.128906 114.523438 196.867188 114.074219 194.574219 113.773438 C 192.28125 113.46875 189.976562 113.320312 187.664062 113.320312 C 185.921875 113.320312 184.210938 113.429688 182.515625 113.59375 C 184.808594 113.832031 187.078125 114.21875 189.320312 114.753906 C 191.566406 115.289062 193.765625 115.964844 195.917969 116.789062 C 198.074219 117.609375 200.164062 118.566406 202.195312 119.660156 C 204.222656 120.753906 206.171875 121.976562 208.042969 123.324219 C 209.914062 124.671875 211.6875 126.136719 213.363281 127.71875 C 215.042969 129.296875 216.609375 130.980469 218.066406 132.765625 C 219.523438 134.546875 220.859375 136.421875 222.070312 138.378906 C 223.285156 140.335938 224.363281 142.367188 225.3125 144.464844 Z M 225.3125 144.464844 " fill-opacity="1" fill-rule="nonzero"/><g clip-path="url(#cb9dc5e4e9)"><g clip-path="url(#4fca26314e)"><path fill="#f6eff5" d="M 159.363281 136.28125 L 215.636719 136.28125 L 215.636719 192.558594 L 159.363281 192.558594 Z M 159.363281 136.28125 " fill-opacity="1" fill-rule="nonzero"/></g></g><g clip-path="url(#660d0f2e42)"><path fill="#000000" d="M 180.746094 161.714844 C 180.746094 162.628906 180.578125 163.5625 180.25 164.492188 C 179.925781 165.421875 179.496094 166.339844 178.984375 167.242188 C 178.476562 168.148438 177.914062 169.011719 177.289062 169.851562 C 176.675781 170.6875 176.0625 171.460938 175.476562 172.15625 L 174.054688 173.257812 L 174.054688 173.390625 L 175.984375 173.007812 L 181.152344 173.007812 L 181.152344 175.984375 L 169.835938 175.984375 L 169.835938 174.175781 C 170.269531 173.730469 170.75 173.207031 171.285156 172.601562 C 171.820312 172 172.371094 171.359375 172.917969 170.6875 C 173.464844 170.019531 174 169.3125 174.523438 168.59375 C 175.042969 167.871094 175.5 167.152344 175.917969 166.417969 C 176.335938 165.683594 176.664062 164.988281 176.898438 164.292969 C 177.144531 163.613281 177.261719 162.957031 177.261719 162.355469 C 177.261719 161.621094 177.054688 161.003906 176.636719 160.535156 C 176.21875 160.0625 175.554688 159.8125 174.640625 159.8125 C 174.066406 159.8125 173.480469 159.929688 172.878906 160.179688 C 172.277344 160.429688 171.769531 160.730469 171.363281 161.109375 L 169.957031 158.632812 C 170.660156 158.058594 171.441406 157.597656 172.332031 157.246094 C 173.21875 156.890625 174.261719 156.722656 175.460938 156.722656 C 176.230469 156.722656 176.9375 156.824219 177.589844 157.046875 C 178.230469 157.257812 178.789062 157.585938 179.261719 157.992188 C 179.730469 158.410156 180.09375 158.921875 180.355469 159.539062 C 180.617188 160.167969 180.746094 160.886719 180.746094 161.714844 Z M 196.355469 170.730469 L 193.394531 170.730469 L 193.394531 175.996094 L 190.144531 175.996094 L 190.144531 170.730469 L 182 170.730469 L 182 168.738281 L 190.523438 156.96875 L 193.394531 156.96875 L 193.394531 167.925781 L 196.355469 167.925781 Z M 190.144531 163.796875 L 190.390625 161.53125 L 190.289062 161.53125 L 189.375 163.46875 L 186.582031 167.113281 L 185.238281 168.132812 L 186.960938 167.925781 L 190.15625 167.925781 L 190.15625 163.796875 Z M 202.957031 167.007812 L 202.957031 162.539062 C 202.957031 161.898438 202.867188 161.4375 202.699219 161.148438 C 202.515625 160.863281 202.203125 160.730469 201.730469 160.730469 C 201.394531 160.730469 201.066406 160.847656 200.78125 161.085938 C 200.492188 161.320312 200.296875 161.621094 200.207031 161.988281 L 200.207031 167.007812 L 198.167969 167.007812 L 198.167969 156 L 200.207031 156 L 200.207031 160.023438 L 200.269531 160.023438 C 200.519531 159.683594 200.832031 159.421875 201.195312 159.222656 C 201.5625 159.027344 202.03125 158.921875 202.59375 158.921875 C 202.984375 158.921875 203.335938 158.976562 203.636719 159.078125 C 203.9375 159.183594 204.199219 159.355469 204.394531 159.605469 C 204.601562 159.839844 204.746094 160.167969 204.851562 160.585938 C 204.957031 161.003906 204.996094 161.515625 204.996094 162.121094 L 204.996094 167.007812 Z M 214.820312 164.675781 C 214.820312 179.847656 202.527344 192.191406 187.417969 192.191406 C 172.304688 192.191406 160.011719 179.847656 160.011719 164.675781 C 160.011719 154.269531 165.6875 145.007812 174.707031 140.289062 L 173.480469 144.023438 L 187.417969 134.535156 L 170.855469 131.507812 L 173.871094 134.875 C 168.546875 137.3125 163.992188 141.113281 160.625 145.976562 C 156.8125 151.480469 154.792969 157.953125 154.792969 164.675781 C 154.792969 182.746094 169.421875 197.433594 187.417969 197.433594 C 205.414062 197.433594 220.042969 182.746094 220.042969 164.675781 Z M 187.417969 137.15625 C 187.9375 137.15625 188.472656 137.171875 189.007812 137.195312 L 189.308594 131.96875 C 188.683594 131.929688 188.042969 131.914062 187.417969 131.914062 Z M 197.933594 139.265625 C 198.875 139.660156 199.800781 140.105469 200.6875 140.601562 L 203.21875 136.015625 C 202.164062 135.425781 201.054688 134.890625 199.929688 134.417969 Z M 206.3125 137.96875 L 203.285156 142.242188 C 204.121094 142.832031 204.917969 143.484375 205.6875 144.167969 L 209.171875 140.261719 C 208.257812 139.449219 207.304688 138.675781 206.3125 137.96875 Z M 192.050781 137.550781 C 193.054688 137.71875 194.058594 137.957031 195.039062 138.230469 L 196.5 133.210938 C 195.335938 132.871094 194.136719 132.597656 192.9375 132.398438 Z M 215.96875 148.804688 L 211.402344 151.347656 C 211.898438 152.238281 212.339844 153.167969 212.734375 154.113281 L 217.546875 152.09375 C 217.078125 150.980469 216.558594 149.867188 215.96875 148.804688 Z M 218.761719 155.566406 L 213.75 157.023438 C 214.039062 158.003906 214.261719 159.015625 214.429688 160.023438 L 219.570312 159.144531 C 219.375 157.9375 219.101562 156.734375 218.761719 155.566406 Z M 211.742188 142.855469 L 207.851562 146.355469 C 208.53125 147.117188 209.171875 147.929688 209.769531 148.765625 L 214.023438 145.726562 C 213.320312 144.71875 212.550781 143.761719 211.742188 142.855469 Z M 219.988281 162.789062 L 214.78125 163.089844 C 214.808594 163.625 214.820312 164.164062 214.820312 164.6875 L 220.042969 164.6875 C 220.042969 164.058594 220.027344 163.417969 219.988281 162.789062 Z M 219.988281 162.789062 " fill-opacity="1" fill-rule="nonzero"/></g><g fill="#ff914d" fill-opacity="1"><g transform="translate(144.351558, 283.199981)"><g><path d="M 8.90625 -8.578125 L 8.90625 0 L 2.546875 0 L 2.546875 -23.5625 L 10.265625 -23.5625 C 16.671875 -23.5625 19.875 -21.238281 19.875 -16.59375 C 19.875 -13.863281 18.539062 -11.753906 15.875 -10.265625 L 22.734375 0 L 15.515625 0 L 10.515625 -8.578125 Z M 8.90625 -13.359375 L 10.109375 -13.359375 C 12.328125 -13.359375 13.4375 -14.34375 13.4375 -16.3125 C 13.4375 -17.925781 12.347656 -18.734375 10.171875 -18.734375 L 8.90625 -18.734375 Z M 8.90625 -13.359375 "/></g></g><g transform="translate(166.684564, 283.199981)"><g><path d="M 18.078125 0 L 0.984375 0 L 0.984375 -4.1875 L 6.734375 -10 C 8.378906 -11.71875 9.453125 -12.890625 9.953125 -13.515625 C 10.460938 -14.148438 10.816406 -14.691406 11.015625 -15.140625 C 11.210938 -15.597656 11.3125 -16.070312 11.3125 -16.5625 C 11.3125 -17.175781 11.113281 -17.660156 10.71875 -18.015625 C 10.320312 -18.367188 9.765625 -18.546875 9.046875 -18.546875 C 8.296875 -18.546875 7.539062 -18.332031 6.78125 -17.90625 C 6.03125 -17.488281 5.175781 -16.863281 4.21875 -16.03125 L 0.71875 -20.125 C 1.9375 -21.207031 2.957031 -21.984375 3.78125 -22.453125 C 4.613281 -22.921875 5.515625 -23.273438 6.484375 -23.515625 C 7.453125 -23.765625 8.546875 -23.890625 9.765625 -23.890625 C 11.285156 -23.890625 12.644531 -23.617188 13.84375 -23.078125 C 15.039062 -22.546875 15.96875 -21.78125 16.625 -20.78125 C 17.289062 -19.789062 17.625 -18.679688 17.625 -17.453125 C 17.625 -16.523438 17.507812 -15.671875 17.28125 -14.890625 C 17.050781 -14.109375 16.691406 -13.335938 16.203125 -12.578125 C 15.722656 -11.816406 15.082031 -11.015625 14.28125 -10.171875 C 13.476562 -9.335938 11.773438 -7.753906 9.171875 -5.421875 L 9.171875 -5.25 L 18.078125 -5.25 Z M 18.078125 0 "/></g></g><g transform="translate(186.0205, 283.199981)"><g><path d="M 18.84375 -4.5625 L 16.25 -4.5625 L 16.25 0 L 9.953125 0 L 9.953125 -4.5625 L 0.5625 -4.5625 L 0.5625 -9.234375 L 10.359375 -23.5625 L 16.25 -23.5625 L 16.25 -9.3125 L 18.84375 -9.3125 Z M 9.953125 -9.3125 L 9.953125 -12.046875 C 9.953125 -12.566406 9.972656 -13.265625 10.015625 -14.140625 C 10.054688 -15.015625 10.085938 -15.472656 10.109375 -15.515625 L 9.921875 -15.515625 C 9.554688 -14.691406 9.144531 -13.921875 8.6875 -13.203125 L 6.078125 -9.3125 Z M 9.953125 -9.3125 "/></g></g><g transform="translate(205.356436, 283.199981)"><g><path d="M 22.734375 0 L 16.34375 0 L 16.34375 -9.609375 L 8.9375 -9.609375 L 8.9375 0 L 2.546875 0 L 2.546875 -23.5625 L 8.9375 -23.5625 L 8.9375 -14.828125 L 16.34375 -14.828125 L 16.34375 -23.5625 L 22.734375 -23.5625 Z M 22.734375 0 "/></g></g></g><g fill="#000000" fill-opacity="1"><g transform="translate(127.124996, 299.39998)"><g><path d="M 1.8125 -3.734375 L 1.8125 0 L 1.21875 0 L 1.21875 -8.5625 L 3.25 -8.5625 C 4.3125 -8.5625 5.097656 -8.363281 5.609375 -7.96875 C 6.117188 -7.582031 6.375 -6.992188 6.375 -6.203125 C 6.375 -5.628906 6.222656 -5.144531 5.921875 -4.75 C 5.617188 -4.351562 5.15625 -4.070312 4.53125 -3.90625 L 6.859375 0 L 6.140625 0 L 3.9375 -3.734375 Z M 1.8125 -4.25 L 3.453125 -4.25 C 4.171875 -4.25 4.726562 -4.410156 5.125 -4.734375 C 5.519531 -5.054688 5.71875 -5.53125 5.71875 -6.15625 C 5.71875 -6.8125 5.519531 -7.285156 5.125 -7.578125 C 4.738281 -7.878906 4.109375 -8.03125 3.234375 -8.03125 L 1.8125 -8.03125 Z M 1.8125 -4.25 "/></g></g><g transform="translate(134.255855, 299.39998)"><g><path d="M 3.640625 0.125 C 2.710938 0.125 1.988281 -0.160156 1.46875 -0.734375 C 0.957031 -1.304688 0.703125 -2.109375 0.703125 -3.140625 C 0.703125 -4.148438 0.953125 -4.960938 1.453125 -5.578125 C 1.953125 -6.191406 2.625 -6.5 3.46875 -6.5 C 4.21875 -6.5 4.804688 -6.234375 5.234375 -5.703125 C 5.671875 -5.179688 5.890625 -4.472656 5.890625 -3.578125 L 5.890625 -3.109375 L 1.3125 -3.109375 C 1.3125 -2.234375 1.507812 -1.5625 1.90625 -1.09375 C 2.3125 -0.632812 2.890625 -0.40625 3.640625 -0.40625 C 4.003906 -0.40625 4.320312 -0.429688 4.59375 -0.484375 C 4.875 -0.535156 5.222656 -0.644531 5.640625 -0.8125 L 5.640625 -0.28125 C 5.285156 -0.125 4.953125 -0.0195312 4.640625 0.03125 C 4.335938 0.09375 4.003906 0.125 3.640625 0.125 Z M 3.46875 -5.984375 C 2.851562 -5.984375 2.359375 -5.78125 1.984375 -5.375 C 1.617188 -4.96875 1.40625 -4.382812 1.34375 -3.625 L 5.28125 -3.625 C 5.28125 -4.363281 5.117188 -4.941406 4.796875 -5.359375 C 4.472656 -5.773438 4.03125 -5.984375 3.46875 -5.984375 Z M 3.46875 -5.984375 "/></g></g><g transform="translate(140.841792, 299.39998)"><g><path d="M 3.609375 0.125 C 2.703125 0.125 1.988281 -0.160156 1.46875 -0.734375 C 0.957031 -1.316406 0.703125 -2.117188 0.703125 -3.140625 C 0.703125 -4.203125 0.96875 -5.023438 1.5 -5.609375 C 2.03125 -6.203125 2.765625 -6.5 3.703125 -6.5 C 4.253906 -6.5 4.78125 -6.398438 5.28125 -6.203125 L 5.125 -5.6875 C 4.570312 -5.875 4.09375 -5.96875 3.6875 -5.96875 C 2.90625 -5.96875 2.3125 -5.722656 1.90625 -5.234375 C 1.507812 -4.753906 1.3125 -4.0625 1.3125 -3.15625 C 1.3125 -2.300781 1.507812 -1.628906 1.90625 -1.140625 C 2.3125 -0.648438 2.875 -0.40625 3.59375 -0.40625 C 4.175781 -0.40625 4.710938 -0.507812 5.203125 -0.71875 L 5.203125 -0.1875 C 4.796875 0.0195312 4.265625 0.125 3.609375 0.125 Z M 3.609375 0.125 "/></g></g><g transform="translate(146.542964, 299.39998)"><g><path d="M 6.328125 -3.1875 C 6.328125 -2.15625 6.078125 -1.34375 5.578125 -0.75 C 5.078125 -0.164062 4.382812 0.125 3.5 0.125 C 2.9375 0.125 2.441406 -0.0078125 2.015625 -0.28125 C 1.585938 -0.550781 1.257812 -0.9375 1.03125 -1.4375 C 0.8125 -1.945312 0.703125 -2.53125 0.703125 -3.1875 C 0.703125 -4.226562 0.953125 -5.039062 1.453125 -5.625 C 1.953125 -6.207031 2.644531 -6.5 3.53125 -6.5 C 4.40625 -6.5 5.085938 -6.203125 5.578125 -5.609375 C 6.078125 -5.023438 6.328125 -4.21875 6.328125 -3.1875 Z M 1.3125 -3.1875 C 1.3125 -2.3125 1.503906 -1.628906 1.890625 -1.140625 C 2.273438 -0.648438 2.816406 -0.40625 3.515625 -0.40625 C 4.222656 -0.40625 4.765625 -0.648438 5.140625 -1.140625 C 5.523438 -1.628906 5.71875 -2.3125 5.71875 -3.1875 C 5.71875 -4.070312 5.523438 -4.753906 5.140625 -5.234375 C 4.753906 -5.722656 4.207031 -5.96875 3.5 -5.96875 C 2.800781 -5.96875 2.257812 -5.722656 1.875 -5.234375 C 1.5 -4.753906 1.3125 -4.070312 1.3125 -3.1875 Z M 1.3125 -3.1875 "/></g></g><g transform="translate(153.574213, 299.39998)"><g><path d="M 3.578125 -6.5 C 3.847656 -6.5 4.132812 -6.46875 4.4375 -6.40625 L 4.328125 -5.859375 C 4.066406 -5.921875 3.789062 -5.953125 3.5 -5.953125 C 2.957031 -5.953125 2.507812 -5.722656 2.15625 -5.265625 C 1.8125 -4.804688 1.640625 -4.222656 1.640625 -3.515625 L 1.640625 0 L 1.0625 0 L 1.0625 -6.375 L 1.5625 -6.375 L 1.625 -5.21875 L 1.65625 -5.21875 C 1.914062 -5.6875 2.191406 -6.015625 2.484375 -6.203125 C 2.785156 -6.398438 3.148438 -6.5 3.578125 -6.5 Z M 3.578125 -6.5 "/></g></g><g transform="translate(158.244135, 299.39998)"><g><path d="M 3.40625 -6.5 C 3.863281 -6.5 4.257812 -6.410156 4.59375 -6.234375 C 4.925781 -6.066406 5.226562 -5.78125 5.5 -5.375 L 5.53125 -5.375 C 5.507812 -5.875 5.5 -6.359375 5.5 -6.828125 L 5.5 -9.125 L 6.078125 -9.125 L 6.078125 0 L 5.6875 0 L 5.546875 -0.96875 L 5.5 -0.96875 C 5.007812 -0.238281 4.3125 0.125 3.40625 0.125 C 2.53125 0.125 1.859375 -0.148438 1.390625 -0.703125 C 0.929688 -1.253906 0.703125 -2.050781 0.703125 -3.09375 C 0.703125 -4.195312 0.929688 -5.039062 1.390625 -5.625 C 1.847656 -6.207031 2.519531 -6.5 3.40625 -6.5 Z M 3.40625 -5.96875 C 2.707031 -5.96875 2.179688 -5.722656 1.828125 -5.234375 C 1.484375 -4.742188 1.3125 -4.035156 1.3125 -3.109375 C 1.3125 -1.304688 2.007812 -0.40625 3.40625 -0.40625 C 4.125 -0.40625 4.648438 -0.613281 4.984375 -1.03125 C 5.328125 -1.445312 5.5 -2.132812 5.5 -3.09375 L 5.5 -3.1875 C 5.5 -4.175781 5.332031 -4.882812 5 -5.3125 C 4.664062 -5.75 4.132812 -5.96875 3.40625 -5.96875 Z M 3.40625 -5.96875 "/></g></g><g transform="translate(165.386712, 299.39998)"><g><path d="M 4.9375 0 L 4.78125 -1.015625 L 4.734375 -1.015625 C 4.421875 -0.597656 4.09375 -0.300781 3.75 -0.125 C 3.414062 0.0390625 3.019531 0.125 2.5625 0.125 C 1.9375 0.125 1.445312 -0.0351562 1.09375 -0.359375 C 0.75 -0.679688 0.578125 -1.125 0.578125 -1.6875 C 0.578125 -2.3125 0.832031 -2.796875 1.34375 -3.140625 C 1.863281 -3.484375 2.613281 -3.664062 3.59375 -3.6875 L 4.8125 -3.71875 L 4.8125 -4.140625 C 4.8125 -4.742188 4.6875 -5.203125 4.4375 -5.515625 C 4.195312 -5.828125 3.800781 -5.984375 3.25 -5.984375 C 2.664062 -5.984375 2.054688 -5.816406 1.421875 -5.484375 L 1.203125 -5.984375 C 1.898438 -6.316406 2.59375 -6.484375 3.28125 -6.484375 C 3.976562 -6.484375 4.5 -6.300781 4.84375 -5.9375 C 5.1875 -5.570312 5.359375 -5.003906 5.359375 -4.234375 L 5.359375 0 Z M 2.59375 -0.40625 C 3.269531 -0.40625 3.800781 -0.597656 4.1875 -0.984375 C 4.582031 -1.378906 4.78125 -1.921875 4.78125 -2.609375 L 4.78125 -3.234375 L 3.671875 -3.1875 C 2.773438 -3.144531 2.132812 -3.003906 1.75 -2.765625 C 1.375 -2.535156 1.1875 -2.171875 1.1875 -1.671875 C 1.1875 -1.273438 1.304688 -0.960938 1.546875 -0.734375 C 1.796875 -0.515625 2.144531 -0.40625 2.59375 -0.40625 Z M 2.59375 -0.40625 "/></g></g><g transform="translate(171.744134, 299.39998)"><g><path d="M 2.75 -0.40625 C 3.113281 -0.40625 3.429688 -0.4375 3.703125 -0.5 L 3.703125 -0.03125 C 3.421875 0.0703125 3.097656 0.125 2.734375 0.125 C 2.171875 0.125 1.753906 -0.0234375 1.484375 -0.328125 C 1.222656 -0.628906 1.09375 -1.101562 1.09375 -1.75 L 1.09375 -5.859375 L 0.140625 -5.859375 L 0.140625 -6.203125 L 1.09375 -6.46875 L 1.390625 -7.90625 L 1.6875 -7.90625 L 1.6875 -6.375 L 3.546875 -6.375 L 3.546875 -5.859375 L 1.6875 -5.859375 L 1.6875 -1.828125 C 1.6875 -1.347656 1.769531 -0.988281 1.9375 -0.75 C 2.113281 -0.519531 2.382812 -0.40625 2.75 -0.40625 Z M 2.75 -0.40625 "/></g></g><g transform="translate(175.763665, 299.39998)"><g><path d="M 6.328125 -3.1875 C 6.328125 -2.15625 6.078125 -1.34375 5.578125 -0.75 C 5.078125 -0.164062 4.382812 0.125 3.5 0.125 C 2.9375 0.125 2.441406 -0.0078125 2.015625 -0.28125 C 1.585938 -0.550781 1.257812 -0.9375 1.03125 -1.4375 C 0.8125 -1.945312 0.703125 -2.53125 0.703125 -3.1875 C 0.703125 -4.226562 0.953125 -5.039062 1.453125 -5.625 C 1.953125 -6.207031 2.644531 -6.5 3.53125 -6.5 C 4.40625 -6.5 5.085938 -6.203125 5.578125 -5.609375 C 6.078125 -5.023438 6.328125 -4.21875 6.328125 -3.1875 Z M 1.3125 -3.1875 C 1.3125 -2.3125 1.503906 -1.628906 1.890625 -1.140625 C 2.273438 -0.648438 2.816406 -0.40625 3.515625 -0.40625 C 4.222656 -0.40625 4.765625 -0.648438 5.140625 -1.140625 C 5.523438 -1.628906 5.71875 -2.3125 5.71875 -3.1875 C 5.71875 -4.070312 5.523438 -4.753906 5.140625 -5.234375 C 4.753906 -5.722656 4.207031 -5.96875 3.5 -5.96875 C 2.800781 -5.96875 2.257812 -5.722656 1.875 -5.234375 C 1.5 -4.753906 1.3125 -4.070312 1.3125 -3.1875 Z M 1.3125 -3.1875 "/></g></g><g transform="translate(182.794915, 299.39998)"><g><path d="M 3.578125 -6.5 C 3.847656 -6.5 4.132812 -6.46875 4.4375 -6.40625 L 4.328125 -5.859375 C 4.066406 -5.921875 3.789062 -5.953125 3.5 -5.953125 C 2.957031 -5.953125 2.507812 -5.722656 2.15625 -5.265625 C 1.8125 -4.804688 1.640625 -4.222656 1.640625 -3.515625 L 1.640625 0 L 1.0625 0 L 1.0625 -6.375 L 1.5625 -6.375 L 1.625 -5.21875 L 1.65625 -5.21875 C 1.914062 -5.6875 2.191406 -6.015625 2.484375 -6.203125 C 2.785156 -6.398438 3.148438 -6.5 3.578125 -6.5 Z M 3.578125 -6.5 "/></g></g><g transform="translate(187.464836, 299.39998)"><g><path d="M 1.640625 0 L 1.0625 0 L 1.0625 -6.375 L 1.640625 -6.375 Z M 0.984375 -8.140625 C 0.984375 -8.515625 1.109375 -8.703125 1.359375 -8.703125 C 1.472656 -8.703125 1.5625 -8.648438 1.625 -8.546875 C 1.695312 -8.453125 1.734375 -8.316406 1.734375 -8.140625 C 1.734375 -7.960938 1.695312 -7.820312 1.625 -7.71875 C 1.5625 -7.625 1.472656 -7.578125 1.359375 -7.578125 C 1.109375 -7.578125 0.984375 -7.765625 0.984375 -8.140625 Z M 0.984375 -8.140625 "/></g></g><g transform="translate(190.177727, 299.39998)"><g><path d="M 6.328125 -3.1875 C 6.328125 -2.15625 6.078125 -1.34375 5.578125 -0.75 C 5.078125 -0.164062 4.382812 0.125 3.5 0.125 C 2.9375 0.125 2.441406 -0.0078125 2.015625 -0.28125 C 1.585938 -0.550781 1.257812 -0.9375 1.03125 -1.4375 C 0.8125 -1.945312 0.703125 -2.53125 0.703125 -3.1875 C 0.703125 -4.226562 0.953125 -5.039062 1.453125 -5.625 C 1.953125 -6.207031 2.644531 -6.5 3.53125 -6.5 C 4.40625 -6.5 5.085938 -6.203125 5.578125 -5.609375 C 6.078125 -5.023438 6.328125 -4.21875 6.328125 -3.1875 Z M 1.3125 -3.1875 C 1.3125 -2.3125 1.503906 -1.628906 1.890625 -1.140625 C 2.273438 -0.648438 2.816406 -0.40625 3.515625 -0.40625 C 4.222656 -0.40625 4.765625 -0.648438 5.140625 -1.140625 C 5.523438 -1.628906 5.71875 -2.3125 5.71875 -3.1875 C 5.71875 -4.070312 5.523438 -4.753906 5.140625 -5.234375 C 4.753906 -5.722656 4.207031 -5.96875 3.5 -5.96875 C 2.800781 -5.96875 2.257812 -5.722656 1.875 -5.234375 C 1.5 -4.753906 1.3125 -4.070312 1.3125 -3.1875 Z M 1.3125 -3.1875 "/></g></g><g transform="translate(197.208976, 299.39998)"><g/></g><g transform="translate(200.326164, 299.39998)"><g><path d="M 6.03125 0 L 0.65625 0 L 0.65625 -0.515625 L 2.9375 -2.890625 C 3.582031 -3.554688 4.03125 -4.066406 4.28125 -4.421875 C 4.539062 -4.773438 4.734375 -5.109375 4.859375 -5.421875 C 4.984375 -5.742188 5.046875 -6.082031 5.046875 -6.4375 C 5.046875 -6.945312 4.875 -7.359375 4.53125 -7.671875 C 4.195312 -7.992188 3.765625 -8.15625 3.234375 -8.15625 C 2.515625 -8.15625 1.828125 -7.898438 1.171875 -7.390625 L 0.859375 -7.78125 C 1.578125 -8.382812 2.367188 -8.6875 3.234375 -8.6875 C 3.984375 -8.6875 4.570312 -8.488281 5 -8.09375 C 5.425781 -7.695312 5.640625 -7.148438 5.640625 -6.453125 C 5.640625 -5.878906 5.492188 -5.328125 5.203125 -4.796875 C 4.921875 -4.273438 4.398438 -3.625 3.640625 -2.84375 L 1.4375 -0.59375 L 1.4375 -0.5625 L 6.03125 -0.5625 Z M 6.03125 0 "/></g></g><g transform="translate(207.175772, 299.39998)"><g><path d="M 6.6875 -2.1875 L 5.203125 -2.1875 L 5.203125 0 L 4.65625 0 L 4.65625 -2.1875 L 0.25 -2.1875 L 0.25 -2.578125 L 4.5 -8.609375 L 5.203125 -8.609375 L 5.203125 -2.6875 L 6.6875 -2.6875 Z M 4.65625 -2.6875 L 4.65625 -5.140625 C 4.65625 -6.316406 4.679688 -7.304688 4.734375 -8.109375 L 4.6875 -8.109375 C 4.613281 -7.960938 4.375 -7.597656 3.96875 -7.015625 L 0.953125 -2.6875 Z M 4.65625 -2.6875 "/></g></g><g transform="translate(214.025381, 299.39998)"><g/></g><g transform="translate(217.142569, 299.39998)"><g><path d="M 5.515625 0 L 5.515625 -4.125 C 5.515625 -4.769531 5.378906 -5.238281 5.109375 -5.53125 C 4.835938 -5.820312 4.414062 -5.96875 3.84375 -5.96875 C 3.082031 -5.96875 2.523438 -5.773438 2.171875 -5.390625 C 1.816406 -5.003906 1.640625 -4.378906 1.640625 -3.515625 L 1.640625 0 L 1.0625 0 L 1.0625 -9.125 L 1.640625 -9.125 L 1.640625 -6.21875 L 1.625 -5.40625 L 1.65625 -5.40625 C 1.894531 -5.789062 2.195312 -6.066406 2.5625 -6.234375 C 2.925781 -6.410156 3.378906 -6.5 3.921875 -6.5 C 5.359375 -6.5 6.078125 -5.722656 6.078125 -4.171875 L 6.078125 0 Z M 5.515625 0 "/></g></g><g transform="translate(224.220693, 299.39998)"><g><path d="M 6.328125 -3.1875 C 6.328125 -2.15625 6.078125 -1.34375 5.578125 -0.75 C 5.078125 -0.164062 4.382812 0.125 3.5 0.125 C 2.9375 0.125 2.441406 -0.0078125 2.015625 -0.28125 C 1.585938 -0.550781 1.257812 -0.9375 1.03125 -1.4375 C 0.8125 -1.945312 0.703125 -2.53125 0.703125 -3.1875 C 0.703125 -4.226562 0.953125 -5.039062 1.453125 -5.625 C 1.953125 -6.207031 2.644531 -6.5 3.53125 -6.5 C 4.40625 -6.5 5.085938 -6.203125 5.578125 -5.609375 C 6.078125 -5.023438 6.328125 -4.21875 6.328125 -3.1875 Z M 1.3125 -3.1875 C 1.3125 -2.3125 1.503906 -1.628906 1.890625 -1.140625 C 2.273438 -0.648438 2.816406 -0.40625 3.515625 -0.40625 C 4.222656 -0.40625 4.765625 -0.648438 5.140625 -1.140625 C 5.523438 -1.628906 5.71875 -2.3125 5.71875 -3.1875 C 5.71875 -4.070312 5.523438 -4.753906 5.140625 -5.234375 C 4.753906 -5.722656 4.207031 -5.96875 3.5 -5.96875 C 2.800781 -5.96875 2.257812 -5.722656 1.875 -5.234375 C 1.5 -4.753906 1.3125 -4.070312 1.3125 -3.1875 Z M 1.3125 -3.1875 "/></g></g><g transform="translate(231.251943, 299.39998)"><g><path d="M 3.578125 -6.5 C 3.847656 -6.5 4.132812 -6.46875 4.4375 -6.40625 L 4.328125 -5.859375 C 4.066406 -5.921875 3.789062 -5.953125 3.5 -5.953125 C 2.957031 -5.953125 2.507812 -5.722656 2.15625 -5.265625 C 1.8125 -4.804688 1.640625 -4.222656 1.640625 -3.515625 L 1.640625 0 L 1.0625 0 L 1.0625 -6.375 L 1.5625 -6.375 L 1.625 -5.21875 L 1.65625 -5.21875 C 1.914062 -5.6875 2.191406 -6.015625 2.484375 -6.203125 C 2.785156 -6.398438 3.148438 -6.5 3.578125 -6.5 Z M 3.578125 -6.5 "/></g></g><g transform="translate(235.921864, 299.39998)"><g><path d="M 4.9375 0 L 4.78125 -1.015625 L 4.734375 -1.015625 C 4.421875 -0.597656 4.09375 -0.300781 3.75 -0.125 C 3.414062 0.0390625 3.019531 0.125 2.5625 0.125 C 1.9375 0.125 1.445312 -0.0351562 1.09375 -0.359375 C 0.75 -0.679688 0.578125 -1.125 0.578125 -1.6875 C 0.578125 -2.3125 0.832031 -2.796875 1.34375 -3.140625 C 1.863281 -3.484375 2.613281 -3.664062 3.59375 -3.6875 L 4.8125 -3.71875 L 4.8125 -4.140625 C 4.8125 -4.742188 4.6875 -5.203125 4.4375 -5.515625 C 4.195312 -5.828125 3.800781 -5.984375 3.25 -5.984375 C 2.664062 -5.984375 2.054688 -5.816406 1.421875 -5.484375 L 1.203125 -5.984375 C 1.898438 -6.316406 2.59375 -6.484375 3.28125 -6.484375 C 3.976562 -6.484375 4.5 -6.300781 4.84375 -5.9375 C 5.1875 -5.570312 5.359375 -5.003906 5.359375 -4.234375 L 5.359375 0 Z M 2.59375 -0.40625 C 3.269531 -0.40625 3.800781 -0.597656 4.1875 -0.984375 C 4.582031 -1.378906 4.78125 -1.921875 4.78125 -2.609375 L 4.78125 -3.234375 L 3.671875 -3.1875 C 2.773438 -3.144531 2.132812 -3.003906 1.75 -2.765625 C 1.375 -2.535156 1.1875 -2.171875 1.1875 -1.671875 C 1.1875 -1.273438 1.304688 -0.960938 1.546875 -0.734375 C 1.796875 -0.515625 2.144531 -0.40625 2.59375 -0.40625 Z M 2.59375 -0.40625 "/></g></g><g transform="translate(242.279286, 299.39998)"><g><path d="M 5.015625 -1.65625 C 5.015625 -1.082031 4.796875 -0.640625 4.359375 -0.328125 C 3.929688 -0.0234375 3.316406 0.125 2.515625 0.125 C 1.671875 0.125 1 -0.0078125 0.5 -0.28125 L 0.5 -0.90625 C 1.132812 -0.582031 1.804688 -0.421875 2.515625 -0.421875 C 3.148438 -0.421875 3.628906 -0.523438 3.953125 -0.734375 C 4.273438 -0.941406 4.4375 -1.222656 4.4375 -1.578125 C 4.4375 -1.890625 4.304688 -2.15625 4.046875 -2.375 C 3.785156 -2.59375 3.359375 -2.8125 2.765625 -3.03125 C 2.128906 -3.257812 1.679688 -3.457031 1.421875 -3.625 C 1.171875 -3.789062 0.976562 -3.976562 0.84375 -4.1875 C 0.71875 -4.394531 0.65625 -4.648438 0.65625 -4.953125 C 0.65625 -5.421875 0.851562 -5.796875 1.25 -6.078125 C 1.65625 -6.359375 2.21875 -6.5 2.9375 -6.5 C 3.625 -6.5 4.273438 -6.367188 4.890625 -6.109375 L 4.671875 -5.578125 C 4.046875 -5.835938 3.46875 -5.96875 2.9375 -5.96875 C 2.414062 -5.96875 2 -5.878906 1.6875 -5.703125 C 1.382812 -5.535156 1.234375 -5.300781 1.234375 -5 C 1.234375 -4.664062 1.351562 -4.394531 1.59375 -4.1875 C 1.832031 -3.988281 2.296875 -3.769531 2.984375 -3.53125 C 3.554688 -3.320312 3.972656 -3.132812 4.234375 -2.96875 C 4.492188 -2.800781 4.6875 -2.613281 4.8125 -2.40625 C 4.945312 -2.195312 5.015625 -1.945312 5.015625 -1.65625 Z M 5.015625 -1.65625 "/></g></g></g></svg>